<svg width="1920" height="248" viewBox="0 0 1920 248" fill="none" xmlns="http://www.w3.org/2000/svg">
<g filter="url(#filter0_f_35_20)">
<path d="M399.52 14.0231C239.456 25.0333 0 109.798 0 109.798V180L399.52 87.2335L865.627 168.467L1301.19 109.798L1684.19 180L1920 139.383V38.5937C1920 38.5937 1805.82 65.2101 1731.25 71.1874C1551.13 85.6269 1453.83 2.88099 1273.16 6.00005C1112.01 8.78206 1026.74 66.7722 865.627 71.1874C682.306 76.2112 582.478 1.43817 399.52 14.0231Z" fill="url(#paint0_linear_35_20)"/>
</g>
<g filter="url(#filter1_f_35_20)">
<path d="M391.555 70.0903C229.072 81.075 -14 165.643 -14 165.643V235.682C-14 235.682 229.108 149.885 391.555 143.131C578.948 135.339 677.159 221.661 864.702 224.175C1038.91 226.511 1132.72 159.941 1306.85 165.643C1461.12 170.695 1541.38 241.303 1695.63 235.682C1790.42 232.227 1935 195.159 1935 195.159V94.6038C1935 94.6038 1819.09 121.158 1743.4 127.122C1560.56 141.528 1461.79 58.9741 1278.39 62.0859C1114.8 64.8615 1028.25 122.717 864.702 127.122C678.612 132.134 577.276 57.5346 391.555 70.0903Z" fill="url(#paint1_linear_35_20)"/>
</g>
<defs>
<filter id="filter0_f_35_20" x="-5" y="0.91394" width="1930" height="184.086" filterUnits="userSpaceOnUse" color-interpolation-filters="sRGB">
<feFlood flood-opacity="0" result="BackgroundImageFix"/>
<feBlend mode="normal" in="SourceGraphic" in2="BackgroundImageFix" result="shape"/>
<feGaussianBlur stdDeviation="2.5" result="effect1_foregroundBlur_35_20"/>
</filter>
<filter id="filter1_f_35_20" x="-39" y="37" width="1999" height="224" filterUnits="userSpaceOnUse" color-interpolation-filters="sRGB">
<feFlood flood-opacity="0" result="BackgroundImageFix"/>
<feBlend mode="normal" in="SourceGraphic" in2="BackgroundImageFix" result="shape"/>
<feGaussianBlur stdDeviation="12.5" result="effect1_foregroundBlur_35_20"/>
</filter>
<linearGradient id="paint0_linear_35_20" x1="0" y1="93" x2="1920" y2="93" gradientUnits="userSpaceOnUse">
<stop stop-color="#7182D9"/>
<stop offset="1" stop-color="#CCE8DE"/>
</linearGradient>
<linearGradient id="paint1_linear_35_20" x1="-14" y1="148.884" x2="1935" y2="148.884" gradientUnits="userSpaceOnUse">
<stop stop-color="#9771D9"/>
<stop offset="1" stop-color="#D6CCE8"/>
</linearGradient>
</defs>
</svg>
