<svg width="95" height="75" viewBox="0 0 95 75" fill="none" xmlns="http://www.w3.org/2000/svg">
<g clip-path="url(#clip0_21_48)">
<path d="M10.4806 0.122948C15.1484 0.122948 19.9732 0.71311 19.9732 9.21147C19.9732 16.8443 17.3059 19.1656 13.1087 19.1656C9.93141 19.1656 7.61709 18.2607 7.61709 12.4377V4.88361C7.61709 3.50656 7.49941 2.1295 6.51877 2.1295C5.6558 2.1295 5.38122 2.87704 5.38122 4.80492V17.9459C5.38122 25.7361 6.32264 27.3098 9.49993 27.4279V27.6639H0.713346V27.4279C3.89064 27.3098 4.83206 25.7361 4.83206 17.9459V4.96229C4.83206 3.5459 4.79283 1.77541 6.51877 1.77541C7.61709 1.77541 8.20547 2.24754 8.20547 4.88361C8.20547 4.88361 8.16625 7.40164 8.12702 12.4377C8.0878 16.3328 9.22535 18.6541 13.1087 18.6541C16.1683 18.6541 17.149 16.6082 17.3059 9.44754C17.4235 1.22459 14.7954 0.398359 10.3237 0.398359H7.77399C3.18457 0.398359 2.71386 0.516389 2.71386 7.75574H2.3216V0.122948H10.4806ZM40.2419 27.4279L40.3596 27.6639H30.4747L30.4355 27.4279C33.5735 27.3098 34.2796 26.6016 31.0239 18.9689C29.0233 18.4574 27.6897 16.8443 27.6897 12.4377V4.88361C27.6897 3.50656 27.572 2.1295 26.5913 2.1295C25.7284 2.1295 25.4538 2.87704 25.4538 4.80492V17.9459C25.4538 25.7361 26.3952 27.3098 29.5725 27.4279V27.6639H20.7859V27.4279C23.9632 27.3098 24.9046 25.7361 24.9046 17.9459V4.96229C24.9046 3.5459 24.8654 1.77541 26.5913 1.77541C27.6897 1.77541 28.2781 2.24754 28.2781 4.88361C28.2781 4.88361 28.2388 7.40164 28.1996 12.4377C28.1604 16.3328 29.2979 18.6541 33.1813 18.6541C36.2409 18.6541 37.2215 16.6082 37.3784 9.44754C37.4961 1.22459 34.868 0.398359 30.3962 0.398359H27.8466C23.2572 0.398359 22.7864 0.516389 22.7864 7.75574H22.3942V0.122948H30.5532C35.221 0.122948 40.0458 0.71311 40.0458 9.21147C40.0458 16.7656 37.4177 19.1262 33.2597 19.1656C36.437 26.641 37.0646 27.3098 40.2419 27.4279ZM55.673 0.122948C63.2436 0.122948 69.3628 6.3 69.3628 13.8934C69.3628 21.4869 63.2436 27.6246 55.673 27.6246C48.1024 27.6246 41.944 21.4869 41.944 13.8934C41.944 6.3 48.1024 0.122948 55.673 0.122948ZM55.6338 24.9492C65.5579 24.9492 68.7744 19.9918 68.7744 13.8934C68.7744 7.79508 65.401 2.8377 55.6338 2.8377C45.9058 2.8377 42.4931 7.79508 42.4931 13.8934C42.4931 19.9918 45.7489 24.9492 55.6338 24.9492ZM6.99683 70.8947V73.5393C6.29077 74.4246 5.2096 74.9889 3.99606 74.9889C1.86683 74.9889 0.134766 73.2627 0.134766 71.127C0.134766 68.9693 1.89993 67.2541 4.04019 67.2541C5.48541 67.2541 6.37902 67.7852 6.82031 68.1615C6.82031 68.1615 6.87547 68.0619 6.93064 67.9512H7.07406L5.77225 70.7287H5.65089C5.68399 70.6402 6.04806 69.8434 6.08115 69.7549C6.43419 68.9471 6.33489 67.409 3.99606 67.409C2.27502 67.409 0.884959 68.3275 0.884959 71.116C0.884959 73.9156 2.27502 74.8229 3.99606 74.8229C5.81638 74.8229 6.63277 73.7053 6.77618 73.4729V72.3C6.77618 71.3484 6.27973 70.9611 5.25373 70.9611C4.05122 70.9611 3.68715 71.7467 3.46651 72.1783C3.42238 72.2668 3.08038 73.0193 3.08038 73.0193H2.93696L3.9078 70.8947H6.99683ZM13.805 74.9336L13.8271 75H11.3559L11.3338 74.9336C12.2164 74.9004 12.3267 74.4578 11.6096 72.2668L11.4772 71.8574H11.6317L11.7641 72.2668C12.4811 74.4578 12.9004 74.9004 13.805 74.9336ZM11.3007 70.8393C11.389 71.0496 11.389 71.4258 10.8373 71.4369H9.78928C9.25973 71.4369 9.06115 71.4147 8.88463 71.957L8.78534 72.2668C8.05721 74.4578 8.16754 74.9004 9.06115 74.9336L9.03909 75H6.56786L6.58992 74.9336C7.49457 74.9004 7.90276 74.4578 8.61986 72.2668L8.74121 71.9238C8.92876 71.3484 9.16044 71.3262 9.67896 71.3262H10.8484C11.2235 71.3262 11.2014 71.0164 11.1462 70.8393L10.1975 67.9512L9.22663 70.9057H9.07218L9.35902 70.0094C10.0761 67.8295 9.97683 67.3537 9.09425 67.3205L9.11631 67.2541H11.2786L11.3007 67.3205C10.4181 67.3537 10.3078 67.8295 11.0249 70.0094L11.3007 70.8393ZM22.808 67.3205C21.9144 67.3537 21.6497 67.8295 21.6497 70.0094V72.2668C21.6497 74.4578 21.9144 74.9004 22.808 74.9336V75H20.3368V74.9336C21.2304 74.9004 21.4952 74.4578 21.4952 72.2668V67.3758C21.2746 67.3758 20.9326 67.3758 20.392 67.3648C19.7852 67.3648 19.1343 67.5418 18.5937 67.9955C19.2005 68.5377 19.708 69.4893 19.708 71.1602V72.8865C19.708 74.6016 19.3108 75 18.5496 75H18.34C17.5677 75 17.1816 74.6016 17.1816 72.8865V71.1602C17.1816 69.4893 17.6891 68.5377 18.2959 67.9955C17.7553 67.5418 17.1044 67.3648 16.4976 67.3648C15.946 67.3758 15.604 67.3758 15.3833 67.3758V72.2668C15.3833 74.4578 15.6481 74.9004 16.5417 74.9336V75H14.0705V74.9336C14.9641 74.9004 15.2289 74.4578 15.2289 72.2668V70.0094C15.2289 67.8295 14.9641 67.3537 14.0705 67.3205V67.2541H16.619C16.7734 67.2541 17.667 67.2541 18.4503 67.8627C19.2336 67.2541 20.1162 67.2541 20.2817 67.2541H22.808V67.3205ZM19.4873 71.1602C19.4873 69.6664 19.0571 68.7037 18.4503 68.1283C17.8435 68.7037 17.4133 69.6664 17.4133 71.1602V72.8865C17.4133 73.8602 17.6339 74.1369 18.34 74.1369H18.5496C19.2667 74.1369 19.4873 73.8602 19.4873 72.8865V71.1602ZM26.5596 74.9447C28.413 74.9447 28.2586 71.9459 28.2586 71.9459H28.402V75H23.2389V74.9336C24.1325 74.9004 24.3973 74.4578 24.3973 72.2668V71.6471C24.3973 71.2266 24.4855 70.5738 25.346 70.5738H25.8646C26.8575 70.5738 26.8354 69.1574 26.8354 69.1574H26.9788V72.0565H26.8354C26.8354 72.0565 26.8575 70.6402 25.8646 70.6402H25.4343C25.0482 70.6402 24.5517 70.6623 24.5517 71.6693V72.2668C24.5517 74.4578 24.7834 74.9447 25.7211 74.9447H26.5596ZM23.2389 67.3205V67.2541H28.402V69.3787H28.2586C28.2586 69.3787 28.413 67.2984 26.5596 67.3094C26.1955 67.3205 25.9197 67.3205 25.6991 67.3205C24.8165 67.3205 24.5628 67.8295 24.5517 69.943H24.3973C24.3862 67.8184 24.1215 67.3426 23.2389 67.3205ZM51.8635 47.6951C48.6862 47.8131 47.7448 49.5049 47.7448 57.2557V65.282C47.7448 73.0721 48.6862 74.6459 51.8635 74.7639V75H47.1956C40.0173 74.9213 42.4493 66.8951 37.6637 53.4787C36.6439 50.6852 35.624 49.2689 34.4865 48.5213V65.282C34.4865 73.0721 35.4279 74.6459 38.6052 74.7639V75H29.8186V74.7639C32.9959 74.6459 33.9373 73.0721 33.9373 65.282V57.2557C33.9373 49.5049 32.9959 47.8131 29.8186 47.6951V47.459H36.0163L42.3708 65.282C45.1167 72.9541 45.2736 74.6459 48.4116 74.7639H49.1961C47.5879 74.4492 47.1956 73.4262 47.1956 71.2623V57.2557C47.1956 49.5049 46.2542 47.8131 43.0769 47.6951V47.459H51.8635V47.6951ZM65.1457 74.8033C71.7356 74.8033 71.1865 64.141 71.1865 64.141H71.6964V75H53.3387V74.7639C56.516 74.6459 57.4575 73.0721 57.4575 65.282V63.0787C57.4575 61.5836 57.7713 59.2623 60.8309 59.2623H62.6745C66.2048 59.2623 66.1264 54.2262 66.1264 54.2262H66.6363V64.5344H66.1264C66.1264 64.5344 66.2048 59.4984 62.6745 59.4984H61.1447C59.7718 59.4984 58.0066 59.577 58.0066 63.1574V65.282C58.0066 73.0721 58.8304 74.8033 62.1646 74.8033H65.1457ZM53.3387 47.6951V47.459H71.6964V55.0131H71.1865C71.1865 55.0131 71.7356 47.6164 65.1457 47.6557C63.8513 47.6951 62.8706 47.6951 62.0861 47.6951C58.948 47.6951 58.0458 49.5049 58.0066 57.0197H57.4575C57.4182 49.4656 56.4768 47.7738 53.3387 47.6951ZM93.6178 47.459L94.8338 58.7115H94.4416C93.0294 51.6295 91.735 47.7738 88.5577 47.7738C85.9296 47.7738 85.302 50.1344 85.302 57.177V65.4393C85.302 72.9934 86.2434 74.6459 89.4207 74.7639V75H80.6341V74.7639C83.7722 74.6459 84.7136 72.9934 84.7528 65.4393V57.177C84.7528 50.1344 84.0075 47.7738 81.4971 47.7738C78.3198 47.7738 77.0645 51.6295 75.6132 58.7115H75.2209L76.4762 47.459H93.6178Z" fill="white"/>
</g>
<defs>
<clipPath id="clip0_21_48">
<rect width="95" height="75" fill="white"/>
</clipPath>
</defs>
</svg>
